<?xml version="1.0" standalone="no"?>
<!DOCTYPE svg PUBLIC "-//W3C//DTD SVG 20010904//EN"
 "http://www.w3.org/TR/2001/REC-SVG-20010904/DTD/svg10.dtd">
<svg version="1.0" xmlns="http://www.w3.org/2000/svg"
 width="2464.000000pt" height="1728.000000pt" viewBox="0 0 2464.000000 1728.000000"
 preserveAspectRatio="xMidYMid meet">

<g transform="translate(0.000000,1728.000000) scale(0.100000,-0.100000)"
fill="#000000" stroke="none">
<path d="M5968 12915 c-64 -17 -166 -76 -215 -123 -82 -80 -147 -204 -179
-339 -15 -66 -339 -1997 -385 -2302 -13 -85 -29 -159 -36 -165 -7 -6 -38 -33
-70 -61 -149 -128 -300 -316 -457 -567 -158 -252 -292 -461 -406 -632 -306
-460 -335 -529 -554 -1301 -241 -850 -381 -1257 -551 -1610 -125 -261 -324
-590 -591 -980 -152 -222 -179 -276 -144 -282 22 -4 29 3 106 112 282 399 526
797 680 1109 183 369 310 739 568 1651 211 746 235 800 594 1345 85 129 220
338 299 464 79 125 178 276 221 334 71 98 274 322 292 322 4 0 1 -33 -6 -72
-8 -40 -26 -145 -40 -233 -13 -88 -67 -416 -119 -730 -190 -1156 -254 -1552
-265 -1629 -5 -43 -12 -82 -15 -86 -8 -13 -146 -90 -322 -180 -173 -87 -251
-144 -240 -173 10 -25 29 -21 88 19 30 20 133 76 229 124 96 49 258 139 360
201 470 286 475 287 840 309 102 6 266 20 365 31 99 12 203 19 231 17 115 -10
175 -76 173 -193 0 -73 -21 -126 -79 -207 -112 -153 -294 -250 -665 -353 -369
-102 -505 -244 -675 -705 -94 -255 -148 -374 -222 -487 -108 -164 -250 -298
-433 -408 -24 -14 -11 -55 16 -55 33 0 188 110 283 200 172 165 273 334 391
660 86 240 163 402 185 395 20 -6 297 -55 745 -130 181 -31 331 -58 333 -59 5
-6 -412 -620 -503 -741 -216 -287 -400 -450 -749 -662 -94 -58 -203 -129 -242
-158 -177 -133 -344 -376 -595 -868 -127 -250 -140 -287 -99 -287 25 0 27 4
133 210 118 232 175 335 272 491 196 315 256 373 631 593 243 143 511 386 691
626 85 115 374 541 496 732 21 33 42 56 49 53 15 -5 384 -71 643 -115 359 -62
515 -34 661 117 76 79 151 265 166 408 l3 30 93 7 c77 5 105 12 166 41 199 95
247 283 104 413 -43 38 -153 94 -223 113 l-41 11 21 142 c17 111 25 142 36
140 7 -2 52 -6 99 -9 240 -14 459 95 505 250 27 92 14 157 -46 222 -54 59
-149 106 -314 155 -77 23 -141 44 -143 45 -2 2 6 59 17 127 11 67 28 173 38
235 l17 111 78 35 c197 89 348 209 402 319 57 117 42 242 -39 323 -56 56 -125
80 -233 80 l-84 0 5 30 c2 17 23 143 46 280 150 902 221 1336 327 1995 68 427
68 522 0 666 -40 84 -98 151 -176 203 -113 76 -185 95 -555 150 -167 25 -619
96 -1095 172 -206 33 -429 69 -495 80 -138 22 -326 24 -397 4z m292 -59 c63
-8 210 -31 325 -50 116 -20 386 -63 600 -96 1061 -163 1055 -162 1145 -192 89
-29 158 -69 214 -124 130 -129 152 -268 97 -609 -16 -99 -59 -364 -96 -590
-36 -225 -115 -707 -175 -1070 -168 -1014 -248 -1500 -275 -1683 -14 -92 -44
-273 -66 -402 -37 -216 -81 -488 -189 -1160 -64 -399 -84 -492 -123 -573 -102
-214 -287 -292 -573 -241 -49 8 -177 31 -284 50 -273 48 -770 133 -1200 204
-201 34 -378 64 -393 68 l-29 7 54 59 c47 52 56 58 74 48 24 -13 306 -64 1059
-191 662 -112 659 -111 747 -111 130 1 229 37 318 116 57 52 110 153 130 244
13 66 104 622 155 950 42 272 198 1227 219 1345 9 44 43 251 76 460 33 209 78
488 100 620 22 132 53 323 69 425 28 173 95 578 211 1287 28 170 50 334 50
375 0 132 -42 241 -125 324 -104 105 -102 104 -1115 259 -303 47 -467 73 -791
125 -254 41 -348 47 -426 26 -174 -44 -268 -145 -327 -348 -24 -84 -30 -119
-136 -778 -33 -206 -98 -607 -145 -890 -100 -611 -219 -1347 -240 -1480 -8
-52 -43 -270 -79 -485 -36 -214 -90 -547 -121 -740 -30 -192 -67 -418 -80
-501 -14 -83 -28 -181 -32 -217 -4 -42 -12 -71 -22 -80 -24 -21 -80 -52 -85
-46 -2 2 0 29 5 59 15 95 143 877 338 2070 123 752 184 1122 207 1265 14 88
48 293 75 455 28 162 68 405 90 540 61 379 128 756 150 852 62 263 240 428
474 437 17 0 82 -5 145 -13z m240 -199 c113 -20 295 -49 405 -66 780 -121
1228 -193 1274 -207 109 -31 195 -112 230 -217 24 -71 28 -188 9 -309 -11 -78
-12 -78 -42 -78 -17 0 -69 7 -116 15 -89 15 -369 61 -2220 362 -157 25 -288
49 -292 52 -10 9 49 245 73 293 46 90 106 143 202 179 72 27 215 20 477 -24z
m-300 -597 c239 -38 615 -99 835 -135 220 -36 499 -81 620 -100 121 -20 315
-51 430 -69 116 -19 231 -37 258 -41 26 -3 47 -11 47 -16 0 -10 -25 -165 -111
-689 -209 -1277 -310 -1897 -344 -2110 -14 -85 -48 -292 -76 -460 -28 -168
-68 -417 -90 -554 -21 -137 -40 -250 -42 -253 -4 -3 -73 8 -509 86 -124 23
-480 84 -790 136 -310 53 -702 121 -873 151 -535 96 -485 85 -480 108 3 12 27
158 54 326 27 168 79 485 115 705 36 220 95 580 130 800 71 439 116 715 176
1080 58 352 117 719 146 895 34 213 33 210 52 210 10 0 213 -31 452 -70z
m2320 -2814 c102 -53 134 -142 93 -262 -26 -78 -139 -183 -288 -266 -66 -37
-121 -64 -123 -59 -2 5 15 119 37 253 22 134 43 266 47 293 3 28 9 54 12 59 9
15 184 1 222 -18z m-235 -1261 c139 -40 239 -103 265 -165 20 -47 8 -124 -27
-172 -69 -95 -212 -148 -401 -148 -113 0 -114 0 -109 23 3 12 22 128 42 257
20 129 39 240 41 247 3 12 4 12 189 -42z m-3010 6 c88 -17 268 -49 400 -71
132 -23 303 -52 380 -66 77 -13 284 -49 460 -79 176 -30 383 -66 460 -80 77
-13 273 -48 435 -76 162 -28 298 -53 301 -57 4 -4 -6 -81 -22 -172 -15 -91
-42 -255 -59 -365 -73 -468 -86 -523 -139 -608 -34 -52 -98 -102 -169 -131
-59 -24 -205 -25 -342 -3 -389 63 -1563 267 -1568 272 -16 16 169 90 327 130
198 50 354 115 477 200 46 31 75 44 115 48 112 14 214 92 267 205 23 49 27 70
27 152 -1 83 -4 102 -28 152 -37 76 -128 159 -204 188 -111 42 -260 16 -348
-61 -43 -38 -74 -44 -306 -55 l-145 -7 0 56 c1 45 -3 61 -20 78 -27 26 -162
57 -289 66 -81 5 -92 4 -108 -14 -19 -22 -43 -123 -53 -225 -4 -43 -13 -72
-23 -81 -40 -33 -151 -95 -151 -84 -1 7 25 173 57 370 l58 358 25 -5 c14 -3
97 -19 185 -35z m147 -357 c112 -20 126 -32 114 -97 l-6 -34 -93 -12 c-50 -7
-130 -25 -177 -41 -46 -16 -86 -27 -88 -25 -4 4 11 102 30 189 l10 49 55 -6
c30 -3 99 -14 155 -23z m980 -65 c61 -31 105 -76 138 -141 26 -52 30 -72 30
-137 -1 -115 -48 -205 -138 -262 -65 -41 -80 -37 -43 10 121 153 130 344 20
448 -53 50 -102 66 -197 66 -76 0 -81 1 -61 15 12 8 36 19 53 23 46 12 156 0
198 -22z m1641 -505 c103 -43 172 -100 186 -152 28 -102 -56 -208 -199 -253
-53 -16 -160 -27 -160 -15 0 2 16 102 35 222 19 121 35 222 35 227 0 12 15 8
103 -29z"/>
<path d="M5943 11362 c-30 -4 -80 -64 -92 -109 -20 -78 -34 -224 -22 -236 21
-21 38 17 59 132 16 86 27 120 44 139 25 26 14 26 231 6 63 -6 67 -6 67 14 0
16 -9 24 -39 32 -44 11 -214 27 -248 22z"/>
<path d="M7636 11062 c-13 -22 20 -36 125 -54 123 -21 155 -35 165 -72 5 -22
-8 -164 -22 -235 -5 -23 -2 -32 11 -37 29 -12 43 18 59 131 27 196 3 232 -173
261 -97 16 -157 18 -165 6z"/>
<path d="M6329 10978 c-78 -82 -182 -307 -228 -492 -38 -150 -57 -287 -76
-556 -9 -118 -20 -244 -26 -280 -27 -178 -96 -395 -189 -602 -65 -143 -64
-149 13 -130 41 11 43 10 83 -29 l42 -41 56 18 57 18 25 -32 c29 -36 53 -40
108 -17 l36 15 43 -38 c54 -50 80 -56 128 -31 l38 19 22 -30 c30 -40 53 -46
88 -21 39 28 69 26 93 -4 11 -14 33 -32 48 -40 27 -14 33 -13 76 7 l46 23 32
-39 c34 -40 59 -43 86 -11 21 25 47 17 80 -25 17 -22 38 -40 46 -40 28 0 154
286 198 450 37 138 53 245 81 532 51 527 96 726 222 991 72 149 73 169 10 142
-55 -23 -73 -19 -96 20 -22 38 -36 42 -65 20 -31 -23 -54 -18 -72 16 -17 33
-11 32 -107 12 -23 -4 -35 1 -63 28 -33 32 -36 33 -67 20 -61 -25 -71 -24 -99
7 -28 32 -56 34 -79 6 -21 -25 -60 -16 -105 26 -24 22 -49 40 -56 40 -8 0 -30
-9 -51 -20 -42 -23 -52 -20 -92 28 -30 35 -55 40 -99 17 -48 -25 -78 -19 -104
20 -28 43 -46 44 -83 3z m71 -48 c22 -23 37 -30 67 -30 22 0 48 7 59 15 27 20
47 18 62 -5 22 -37 70 -59 104 -49 16 4 36 13 44 20 11 9 25 2 65 -30 56 -44
83 -50 130 -25 29 15 31 14 54 -10 28 -30 38 -31 95 -11 l43 15 26 -31 c24
-28 31 -31 71 -27 25 3 53 8 62 12 13 6 20 2 29 -17 16 -36 47 -47 87 -30 32
13 34 13 63 -18 25 -27 33 -30 64 -25 l36 7 -36 -70 c-85 -171 -152 -383 -184
-593 -12 -73 -32 -256 -46 -406 -35 -387 -76 -574 -182 -822 -53 -125 -58
-132 -81 -103 -27 35 -61 43 -110 26 -42 -14 -44 -14 -63 11 -24 30 -52 33
-109 10 l-41 -17 -33 37 c-41 44 -80 50 -139 19 -28 -14 -30 -13 -60 22 l-32
37 -53 -21 -53 -21 -40 40 c-45 45 -90 53 -134 24 -24 -16 -26 -15 -58 20 -37
40 -59 44 -115 20 l-37 -15 -28 35 c-25 32 -35 36 -73 36 l-44 0 25 49 c70
139 152 382 183 541 28 140 29 155 47 375 30 376 62 553 132 730 50 126 150
305 171 305 2 0 17 -13 32 -30z"/>
<path d="M6386 10708 c-17 -80 -26 -132 -26 -148 0 -31 18 -23 25 10 10 43 22
46 39 7 14 -36 33 -54 43 -43 4 3 -1 22 -10 40 -15 32 -15 35 4 52 40 37 12
104 -44 104 -20 0 -28 -6 -31 -22z m63 -26 c7 -13 6 -23 -1 -30 -21 -21 -38
-13 -38 18 0 34 23 41 39 12z"/>
<path d="M6525 10647 c-9 -29 -18 -69 -21 -89 -6 -36 -6 -37 36 -48 43 -12 76
-7 66 9 -3 5 -22 12 -41 15 -35 7 -42 19 -26 45 6 9 19 12 40 8 24 -5 31 -3
31 9 0 8 -13 17 -31 21 -23 4 -29 10 -27 27 3 18 9 21 46 18 26 -2 42 0 42 7
0 13 -10 17 -62 24 l-38 6 -15 -52z"/>
<path d="M6676 10629 c-19 -22 -26 -42 -26 -74 0 -49 13 -63 64 -72 29 -4 36
-2 36 11 0 10 -8 16 -24 16 -27 0 -56 24 -56 45 0 26 23 65 42 71 11 3 30 3
44 0 28 -7 35 18 8 28 -34 13 -63 5 -88 -25z"/>
<path d="M6806 10572 c-23 -100 -22 -108 15 -116 49 -10 69 -7 69 8 0 9 -12
16 -32 18 -27 2 -33 7 -33 27 0 21 5 25 30 25 40 1 47 20 9 26 -16 3 -29 11
-28 18 3 33 5 34 43 28 22 -3 42 -2 46 3 8 13 -7 20 -58 27 l-45 6 -16 -70z"/>
<path d="M6964 10593 c-3 -15 -10 -44 -15 -63 -12 -45 -12 -100 0 -100 9 0 24
55 37 139 7 45 -12 67 -22 24z"/>
<path d="M7042 10583 c-11 -21 -32 -115 -32 -143 0 -31 20 -23 27 10 5 25 10
30 35 30 29 0 78 38 78 60 0 20 -49 60 -74 60 -14 0 -29 -8 -34 -17z m68 -28
c15 -18 -2 -45 -30 -45 -23 0 -28 7 -22 35 5 28 33 33 52 10z"/>
<path d="M7170 10561 c0 -5 9 -13 21 -16 16 -5 19 -12 15 -28 -4 -12 -9 -51
-13 -86 -8 -81 11 -76 27 7 18 90 18 91 47 89 44 -3 36 20 -11 32 -55 13 -86
14 -86 2z"/>
<path d="M6330 10430 c0 -16 252 -79 480 -119 63 -11 176 -32 250 -46 148 -27
174 -30 166 -16 -7 11 -40 19 -375 82 -145 27 -318 63 -386 79 -139 34 -135
33 -135 20z"/>
<path d="M6502 10299 c25 -14 518 -110 530 -102 21 12 -23 24 -261 68 -247 46
-301 53 -269 34z"/>
<path d="M6270 10147 c0 -60 15 -71 73 -55 58 15 111 2 115 -30 4 -27 3 -27
52 -2 22 11 41 20 44 20 2 0 9 -13 15 -30 11 -32 21 -36 52 -19 16 8 25 7 37
-4 12 -10 36 -15 74 -14 63 2 78 18 26 28 -54 10 -78 20 -78 35 0 12 -6 12
-36 -1 -50 -21 -54 -19 -54 15 0 35 -8 37 -60 10 -48 -25 -46 -25 -53 1 -3 12
-9 19 -14 16 -4 -3 -31 1 -58 8 -42 10 -53 10 -70 -1 -29 -20 -33 -18 -41 21
-9 52 -24 53 -24 2z"/>
<path d="M7032 10018 c-32 -66 -18 -93 35 -69 22 10 28 9 40 -9 18 -25 45 -26
60 0 15 23 -1 38 -22 20 -11 -9 -14 -6 -17 12 -3 26 -31 27 -61 0 -23 -20 -33
-8 -19 23 21 46 6 67 -16 23z"/>
<path d="M6305 9983 c-11 -3 -35 -16 -53 -30 -52 -39 -24 -48 41 -12 31 17 57
27 58 22 1 -4 0 -22 -1 -39 -2 -39 19 -49 65 -30 29 13 34 12 39 -1 4 -9 17
-14 38 -12 18 2 43 -3 56 -10 28 -15 84 -11 90 7 2 8 -8 12 -30 12 -19 0 -40
6 -46 12 -7 7 -28 11 -46 10 -27 -3 -34 1 -39 17 -5 20 -7 20 -47 6 -24 -8
-44 -15 -46 -15 -2 0 -4 16 -4 35 0 32 -3 35 -27 34 -16 -1 -37 -4 -48 -6z"/>
<path d="M7000 9848 c-39 -64 -21 -90 42 -62 38 17 41 17 53 1 13 -18 65 -24
65 -8 0 14 -59 41 -90 41 -14 0 -31 -5 -38 -12 -20 -20 -24 -2 -8 31 22 42 1
50 -24 9z"/>
<path d="M6180 9790 c0 -5 12 -10 26 -10 14 0 23 4 19 10 -3 6 -15 10 -26 10
-10 0 -19 -4 -19 -10z"/>
<path d="M6290 9771 c0 -14 62 -33 73 -22 5 5 -5 13 -24 20 -39 13 -49 14 -49
2z"/>
<path d="M6450 9732 c0 -12 67 -28 77 -18 10 10 -2 16 -41 23 -23 3 -36 2 -36
-5z"/>
<path d="M6616 9700 c15 -15 84 -25 84 -12 0 11 -33 22 -69 22 -17 0 -22 -3
-15 -10z"/>
<path d="M6784 9673 c4 -4 27 -12 52 -19 47 -12 68 -2 35 15 -22 12 -98 15
-87 4z"/>
<path d="M6945 9643 c6 -5 23 -15 38 -21 25 -11 28 -10 25 5 -2 12 -14 19 -38
21 -21 2 -31 0 -25 -5z"/>
<path d="M7080 9621 c0 -11 25 -21 53 -21 12 0 17 4 12 9 -15 13 -65 23 -65
12z"/>
<path d="M6898 9539 c-10 -5 -18 -15 -18 -20 0 -6 8 -9 18 -8 32 3 35 -1 16
-22 -15 -17 -16 -22 -4 -29 12 -7 12 -12 2 -22 -14 -14 -16 -38 -4 -38 5 0 28
17 51 37 36 30 42 33 37 15 -12 -35 10 -62 49 -62 24 0 35 5 35 15 0 10 -10
15 -30 15 -18 0 -30 5 -30 13 0 19 21 37 42 37 23 0 23 5 -2 30 l-21 21 -43
-26 c-23 -14 -46 -25 -49 -25 -4 0 -4 14 0 31 8 41 -14 59 -49 38z"/>
<path d="M6553 9398 c-95 -60 -142 -152 -98 -188 14 -12 15 -8 10 26 -6 35 -3
44 30 82 43 50 105 85 143 80 37 -4 38 -27 6 -99 -23 -50 -37 -67 -85 -100
-31 -21 -70 -54 -86 -72 l-28 -34 -165 38 c-178 41 -211 46 -193 28 11 -11 87
-31 253 -68 l95 -22 0 -32 c0 -42 28 -48 65 -12 18 17 35 25 47 21 27 -8 421
-76 443 -76 11 0 20 4 20 9 0 9 -118 32 -330 66 -58 10 -110 20 -116 24 -8 4
1 27 26 71 48 81 65 100 90 100 26 0 26 -24 -1 -67 -31 -50 -13 -62 39 -28 41
27 62 27 62 -1 0 -17 28 -18 67 -3 15 6 59 16 97 23 38 6 71 17 74 24 6 18
-33 15 -123 -8 -43 -11 -81 -20 -85 -20 -4 0 -10 9 -13 20 -6 24 -34 26 -67 3
-23 -16 -23 -16 -15 3 25 61 13 90 -32 79 -27 -6 -27 -7 -8 38 48 114 -15 162
-122 95z m6 -267 c-29 -46 -54 -62 -72 -45 -3 4 3 18 13 32 22 27 81 74 87 68
2 -2 -11 -27 -28 -55z m-69 -80 c0 -5 -6 -14 -14 -20 -16 -13 -32 2 -21 19 8
12 35 13 35 1z"/>
<path d="M5480 9025 c-15 -19 -40 -159 -41 -232 -1 -104 48 -142 219 -170 80
-13 105 -14 115 -4 26 26 -7 44 -122 67 -163 32 -170 41 -146 184 23 137 13
201 -25 155z"/>
<path d="M7541 8676 c-7 -8 -20 -64 -31 -126 -28 -167 -48 -181 -225 -144 -84
17 -105 14 -105 -15 0 -24 36 -36 160 -53 79 -10 89 -9 132 10 31 13 52 31 63
53 19 37 57 252 49 274 -8 19 -28 19 -43 1z"/>
<path d="M7155 7328 c-41 -15 -55 -27 -55 -49 0 -23 1 -23 47 -4 19 8 50 15
67 15 67 0 146 -70 146 -131 0 -22 -4 -26 -20 -22 -30 8 -25 -16 11 -60 30
-37 32 -38 51 -20 53 48 73 107 29 83 -16 -8 -19 -4 -25 33 -10 62 -52 116
-111 144 -54 25 -92 28 -140 11z"/>
<path d="M7000 7190 c-17 -22 -28 -45 -25 -51 5 -8 10 -8 18 0 17 17 27 13 27
-11 0 -46 47 -126 90 -154 58 -39 150 -45 199 -14 30 19 32 23 19 36 -12 13
-19 13 -53 -2 -67 -28 -154 7 -190 76 -20 38 -20 74 0 67 27 -11 27 14 0 54
-15 21 -33 39 -41 39 -7 0 -27 -18 -44 -40z"/>
<path d="M5755 6626 c-22 -16 -13 -33 23 -47 14 -5 150 -30 301 -55 152 -24
339 -55 417 -69 78 -14 149 -23 158 -19 19 7 21 37 4 51 -7 5 -105 24 -218 42
-288 46 -621 100 -646 106 -11 2 -29 -1 -39 -9z"/>
<path d="M8845 11575 c-29 -24 -58 -36 -118 -49 -22 -5 -28 -12 -25 -29 5 -37
57 -34 145 7 41 20 76 36 78 36 2 0 20 -22 40 -49 40 -56 90 -91 128 -91 14 0
51 14 82 30 31 17 61 30 66 30 6 0 31 -23 57 -51 81 -89 137 -101 228 -49 l53
30 22 -30 c24 -32 75 -60 109 -60 12 0 49 12 81 26 l58 26 49 -53 c48 -52 52
-54 99 -53 31 0 66 9 92 22 23 12 45 22 49 22 5 0 14 -16 20 -35 7 -18 27 -46
44 -61 26 -21 39 -25 70 -21 20 3 50 14 67 26 16 12 31 21 34 21 2 0 10 -14
17 -30 19 -45 60 -70 115 -70 25 0 55 5 66 10 10 6 19 8 19 5 0 -3 -20 -42
-44 -88 -52 -95 -124 -268 -173 -412 -113 -336 -179 -720 -223 -1300 -36 -473
-66 -676 -141 -965 -52 -199 -104 -334 -221 -577 l-55 -112 -37 50 c-58 78
-106 88 -195 38 l-55 -31 -28 33 c-15 19 -28 37 -28 40 0 11 -51 29 -84 29
-19 0 -60 -13 -91 -30 -31 -16 -61 -30 -66 -30 -4 0 -27 24 -49 54 -71 94
-130 107 -233 51 l-66 -34 -31 55 c-34 61 -54 74 -77 51 -14 -14 -12 -21 22
-71 41 -62 78 -96 106 -96 9 0 30 11 46 24 81 67 115 64 188 -19 31 -36 68
-68 82 -72 19 -4 44 3 89 26 87 44 119 40 153 -18 14 -24 35 -50 46 -57 19
-12 27 -10 75 20 93 57 93 57 163 -18 65 -69 84 -78 109 -48 28 34 197 409
237 527 54 162 107 372 132 521 24 148 59 468 59 544 0 76 10 89 46 63 98 -69
302 -142 494 -178 267 -50 449 -38 756 50 17 5 24 0 35 -27 7 -18 49 -70 94
-114 96 -97 182 -143 320 -170 78 -15 102 -16 195 -6 222 25 401 94 853 326
258 132 362 178 520 232 176 60 271 78 402 78 294 0 481 -136 518 -375 33
-217 -79 -378 -438 -629 -388 -270 -525 -410 -613 -622 -80 -193 -82 -429 -5
-613 37 -89 124 -215 193 -279 164 -151 344 -231 588 -262 645 -80 1493 395
2068 1159 58 76 118 163 135 193 34 60 24 59 100 11 46 -30 188 -77 282 -93
65 -12 118 -14 181 -10 152 12 217 29 497 135 299 112 453 119 635 31 l61 -30
6 -407 c11 -646 21 -691 159 -740 49 -17 98 -18 693 -18 942 0 2314 15 2358
26 51 13 110 68 135 127 11 26 34 121 52 212 46 241 90 449 291 1375 51 233
67 363 55 429 -9 48 -69 111 -121 125 -22 6 -97 14 -167 18 l-128 6 0 82 c0
106 -21 166 -76 221 -43 43 -116 74 -175 74 l-27 0 -4 268 c-4 209 -8 275 -20
302 -30 69 -592 641 -662 674 -59 28 -562 41 -1036 27 -228 -7 -444 -17 -479
-21 -127 -17 -131 -31 -128 -525 l2 -380 -270 -2 c-163 -2 -286 -7 -312 -14
-51 -14 -99 -59 -127 -119 -21 -45 -21 -53 -20 -857 0 -447 -4 -813 -8 -813
-5 0 -31 11 -58 25 -83 42 -171 58 -290 52 -125 -7 -188 -23 -425 -110 -264
-96 -286 -101 -455 -102 -162 0 -245 17 -363 76 -99 50 -100 51 -67 112 45 82
63 158 58 247 -3 68 -7 84 -33 121 -38 55 -84 82 -137 81 -54 -1 -114 -42
-145 -102 -21 -38 -24 -56 -21 -120 4 -94 39 -171 114 -249 l53 -54 -30 -54
c-98 -172 -327 -444 -539 -639 -356 -329 -715 -543 -1063 -634 -399 -105 -719
-70 -982 105 -350 233 -445 665 -224 1024 91 147 195 242 517 470 96 68 204
149 242 181 85 74 181 201 210 276 30 81 37 202 16 284 -49 195 -166 308 -377
366 -86 24 -294 23 -402 0 -221 -48 -367 -106 -774 -309 -332 -165 -526 -248
-658 -283 -53 -15 -104 -19 -210 -18 -160 0 -212 14 -312 82 -86 58 -191 178
-172 196 2 2 33 18 69 36 178 89 332 225 391 346 99 201 -1 398 -201 398 -89
1 -162 -34 -243 -116 -114 -115 -163 -247 -154 -418 2 -57 12 -118 24 -153
l20 -57 -81 -25 c-134 -40 -211 -50 -391 -50 -194 0 -317 20 -492 79 -107 36
-241 101 -284 138 l-27 23 14 138 c30 307 84 648 135 852 54 214 166 510 255
671 21 38 45 84 55 102 32 62 0 84 -75 52 -29 -14 -62 -20 -89 -18 -39 3 -44
6 -65 48 -20 41 -46 70 -62 70 -4 0 -27 -13 -51 -30 -59 -40 -93 -39 -109 0
-33 79 -76 98 -142 64 -80 -42 -107 -36 -157 34 -27 37 -36 42 -70 42 -23 0
-57 -10 -82 -25 -24 -14 -52 -25 -61 -25 -9 0 -33 20 -54 45 -31 39 -42 45
-73 45 -26 0 -50 -9 -77 -30 -62 -47 -88 -42 -160 35 -52 56 -65 65 -95 65
-19 0 -52 -11 -75 -24 -49 -28 -93 -37 -116 -25 -10 5 -29 30 -44 54 -14 25
-36 52 -47 60 -33 23 -87 18 -122 -10z m11602 -759 c5 -4 8 -114 9 -244 1
-268 4 -299 41 -342 55 -66 75 -70 351 -70 l249 0 6 -272 c9 -360 9 -620 -1
-635 -9 -15 -987 -33 -1759 -33 l-432 0 -2 528 c-5 775 0 1034 17 1052 12 12
55 16 212 21 269 8 1300 4 1309 -5z m446 -429 l161 -169 -230 4 c-126 2 -237
8 -246 12 -10 4 -27 23 -38 41 -19 30 -20 49 -20 261 l0 229 106 -105 c58 -58
178 -181 267 -273z m-8958 -510 c26 -14 48 -38 63 -67 66 -127 -31 -308 -238
-447 -75 -50 -191 -113 -209 -113 -16 0 -42 92 -47 170 -11 138 38 281 127
375 96 101 213 133 304 82z m6918 -224 c4 -137 7 -289 7 -339 l0 -92 -61 -11
c-81 -14 -144 -52 -179 -108 -36 -57 -83 -251 -266 -1108 -24 -115 -57 -271
-74 -345 -16 -74 -39 -184 -52 -245 -20 -99 -23 -106 -30 -75 -10 44 -32 2027
-25 2257 4 139 9 179 24 215 41 91 66 97 389 98 l261 0 6 -247z m2444 -129
c57 -33 81 -86 89 -197 l7 -88 -109 3 -109 3 -3 145 c-1 79 0 150 3 158 7 18
69 6 122 -24z m439 -373 c82 -37 90 -86 50 -281 -31 -149 -135 -630 -191 -885
-24 -110 -66 -315 -94 -455 -88 -446 -93 -461 -161 -503 -35 -22 -38 -22 -740
-30 -388 -5 -1056 -9 -1485 -10 -864 -2 -840 -4 -878 60 -17 30 -18 36 -4 85
9 29 21 80 27 113 16 81 169 790 286 1320 111 501 118 521 202 562 l57 28 690
5 c380 3 1030 6 1445 8 719 1 757 1 796 -17z m-5332 -581 c55 -66 57 -159 6
-293 -34 -88 -35 -88 -84 -35 -105 113 -126 245 -52 323 45 47 93 49 130 5z"/>
<path d="M19295 10093 c-28 -7 -36 -16 -26 -31 17 -27 734 -42 794 -17 23 10
22 32 -2 45 -20 10 -724 13 -766 3z"/>
<path d="M19287 9803 c-12 -3 -17 -12 -15 -26 l3 -22 723 -9 c521 -6 731 -5
748 3 35 15 30 39 -8 45 -45 7 -1428 16 -1451 9z"/>
<path d="M19485 9529 c-99 -4 -188 -7 -198 -8 -13 -1 -17 -8 -15 -23 l3 -23
725 -3 c399 -1 735 0 748 3 24 6 29 27 10 42 -16 12 -1009 21 -1273 12z"/>
<path d="M8648 11198 c-11 -9 -21 -51 -32 -128 -9 -63 -19 -127 -22 -142 -4
-21 -2 -28 10 -28 16 0 21 12 32 73 3 21 11 36 18 35 6 -2 26 -36 45 -76 33
-68 52 -85 66 -62 4 6 -7 40 -24 76 l-31 65 31 11 c21 7 36 22 45 44 21 51 -1
98 -58 124 -51 23 -59 24 -80 8z m92 -63 c6 -8 10 -26 8 -42 -3 -25 -7 -28
-45 -31 -43 -3 -43 -3 -43 30 0 18 3 43 6 55 5 19 9 20 34 11 16 -5 34 -16 40
-23z"/>
<path d="M8880 11119 c-6 -13 -21 -76 -34 -139 -19 -93 -22 -118 -11 -128 15
-16 76 -31 128 -32 31 0 38 3 35 18 -2 12 -19 20 -60 27 -31 6 -59 12 -61 15
-3 3 -2 23 2 45 l6 40 59 -3 c52 -4 57 -2 54 15 -2 13 -17 21 -51 27 -49 10
-54 17 -37 61 10 25 13 26 76 23 115 -5 86 34 -35 48 -57 6 -61 5 -71 -17z"/>
<path d="M9155 11066 c-63 -28 -95 -85 -95 -166 0 -60 32 -103 87 -117 45 -11
88 -3 88 17 0 10 -16 17 -50 22 -80 11 -106 66 -69 145 29 60 76 76 147 48 31
-13 21 33 -13 50 -35 18 -56 18 -95 1z"/>
<path d="M9357 11028 c-16 -24 -41 -128 -52 -215 -8 -62 0 -69 100 -79 62 -6
67 -6 63 12 -2 13 -18 21 -61 30 -32 6 -60 13 -62 16 -2 2 -2 21 2 42 l6 38
58 -6 c55 -7 59 -6 59 13 0 16 -8 22 -39 27 -59 9 -66 17 -55 56 l10 33 59 -3
c33 -1 65 0 73 3 27 10 -7 33 -61 40 -29 3 -60 9 -69 11 -10 3 -23 -4 -31 -18z"/>
<path d="M9605 10990 c-8 -12 -55 -245 -55 -271 0 -19 24 -27 34 -11 5 8 38
172 51 250 5 34 4 42 -9 42 -8 0 -18 -4 -21 -10z"/>
<path d="M9735 10957 c-19 -29 -68 -254 -60 -275 10 -26 30 -5 40 44 l11 49
55 5 c67 6 105 29 114 69 12 58 -35 113 -107 125 -32 6 -39 3 -53 -17z m93
-43 c50 -35 1 -104 -62 -88 -22 5 -25 10 -19 33 18 75 36 87 81 55z"/>
<path d="M9942 10913 c2 -9 18 -21 36 -25 39 -10 40 -19 11 -150 -21 -92 -21
-128 0 -128 12 0 25 45 48 164 l17 88 47 -6 c34 -5 49 -3 58 8 16 20 -7 32
-99 51 -95 20 -122 20 -118 -2z"/>
<path d="M8585 10681 c-13 -22 45 -38 475 -127 213 -44 782 -153 938 -179 23
-4 32 -2 32 8 0 10 -73 28 -262 66 -529 106 -896 182 -1023 211 -143 33 -151
34 -160 21z"/>
<path d="M8795 10489 c-4 -6 -5 -12 -3 -14 10 -11 425 -95 830 -168 57 -11 81
-6 62 13 -11 11 -139 39 -422 90 -122 22 -274 52 -337 65 -133 29 -122 28
-130 14z"/>
<path d="M8543 10168 c-13 -6 -23 -18 -23 -26 0 -12 11 -13 58 -9 33 4 78 1
107 -6 46 -11 50 -14 50 -42 0 -42 32 -44 100 -6 73 41 85 40 85 -7 0 -66 38
-80 102 -37 46 31 48 31 48 0 0 -32 30 -48 65 -35 19 7 32 6 49 -5 37 -24 138
-3 121 25 -5 8 -21 10 -47 6 -33 -5 -42 -3 -58 16 -16 20 -21 21 -44 10 -35
-16 -36 -16 -36 11 0 25 -28 57 -48 57 -7 0 -29 -16 -50 -35 -45 -40 -62 -33
-62 25 0 56 -9 63 -60 45 -25 -9 -64 -27 -88 -41 l-44 -26 7 40 6 39 -48 1
c-26 1 -75 3 -108 6 -35 3 -69 1 -82 -6z"/>
<path d="M9700 9998 c-32 -53 -42 -92 -31 -122 13 -32 26 -33 85 -1 26 14 49
25 50 25 2 0 6 -14 10 -30 8 -42 43 -57 84 -36 31 16 49 47 37 66 -9 15 -23
12 -45 -10 -22 -22 -26 -17 -32 30 -3 21 -7 25 -33 22 -16 -2 -49 -14 -72 -28
-23 -13 -44 -24 -47 -24 -13 0 -5 48 14 85 23 44 24 55 10 55 -6 0 -19 -15
-30 -32z"/>
<path d="M8503 9930 c-13 -5 -23 -16 -23 -24 0 -13 9 -14 47 -9 45 6 46 6 39
-18 -16 -50 -18 -80 -6 -94 18 -21 43 -19 101 11 28 14 52 24 52 22 19 -40 26
-43 85 -43 43 0 65 -5 79 -17 31 -28 153 -22 153 7 0 8 -20 14 -57 17 -46 4
-61 10 -81 33 -14 17 -26 24 -30 18 -4 -6 -24 -14 -45 -17 -35 -6 -39 -4 -48
24 -6 16 -14 30 -18 30 -5 0 -34 -9 -66 -20 -83 -28 -89 -27 -82 16 8 51 -6
74 -46 73 -18 0 -42 -4 -54 -9z"/>
<path d="M9656 9727 c-28 -37 -52 -116 -43 -140 9 -24 46 -21 111 9 l57 26 19
-25 c25 -31 86 -45 108 -24 21 21 6 37 -34 37 -19 0 -34 4 -34 9 0 5 -7 17
-17 26 -19 20 -67 14 -126 -17 -21 -10 -41 -17 -45 -14 -3 3 7 28 21 55 44 80
32 122 -17 58z"/>
<path d="M8450 9580 c-19 -12 -15 -15 48 -33 35 -10 54 -11 59 -4 7 12 -24 37
-48 37 -10 0 -23 2 -31 5 -7 3 -20 1 -28 -5z"/>
<path d="M8696 9521 c-13 -21 138 -61 157 -42 8 8 1 15 -24 25 -49 21 -125 30
-133 17z"/>
<path d="M8990 9462 c0 -16 28 -28 83 -36 52 -8 66 7 21 24 -44 17 -104 24
-104 12z"/>
<path d="M9279 9406 c11 -13 104 -36 149 -36 20 0 22 3 13 14 -13 16 -94 36
-143 36 -25 0 -28 -3 -19 -14z"/>
<path d="M9550 9353 c0 -10 111 -46 118 -38 4 3 1 14 -4 23 -8 12 -27 18 -63
20 -28 2 -51 -1 -51 -5z"/>
<path d="M9780 9311 c0 -17 49 -32 89 -29 l36 4 -26 11 c-44 19 -99 27 -99 14z"/>
<path d="M9455 9167 c-26 -19 -10 -38 25 -30 36 7 40 -12 10 -50 -26 -33 -25
-45 5 -53 30 -7 30 -9 5 -41 -22 -28 -26 -53 -10 -53 6 0 38 22 71 50 91 76
132 91 95 36 -23 -36 -20 -63 10 -93 21 -21 32 -24 62 -20 43 7 67 29 58 52
-5 13 -14 15 -44 11 -20 -4 -43 -2 -51 3 -22 14 10 56 61 82 36 18 39 23 24
31 -10 5 -29 7 -44 3 l-27 -7 24 26 c23 24 23 26 5 26 -11 0 -56 -22 -99 -49
-64 -40 -83 -47 -93 -37 -10 10 -10 19 1 47 22 52 6 79 -44 79 -14 0 -33 -6
-44 -13z"/>
<path d="M8950 8959 c-70 -32 -147 -95 -196 -161 -36 -50 -44 -68 -44 -105 0
-34 6 -50 26 -70 31 -31 39 -26 19 13 -31 61 -10 119 71 193 94 86 201 134
245 110 19 -10 21 -16 15 -62 -7 -49 -58 -187 -79 -215 -5 -6 -44 -36 -86 -66
-71 -50 -146 -121 -182 -173 l-16 -23 -174 40 c-96 22 -180 40 -186 40 -20 0
-15 -28 5 -34 26 -7 178 -42 263 -61 l76 -16 -5 -45 c-9 -85 42 -99 115 -31
l45 43 107 -23 c58 -12 212 -40 341 -62 129 -22 258 -45 285 -50 52 -10 81 0
48 17 -10 6 -86 22 -168 37 -242 42 -559 107 -569 116 -5 4 8 35 32 71 22 35
54 90 71 123 31 63 69 95 115 95 37 0 34 -33 -9 -116 -56 -107 -37 -119 71
-49 38 24 74 45 81 45 6 0 13 -16 15 -36 4 -51 29 -58 98 -28 51 21 182 55
273 69 24 4 37 11 34 18 -10 29 -222 -7 -339 -57 -13 -6 -19 -1 -25 25 -16 59
-55 63 -127 14 -47 -32 -50 -31 -32 3 21 41 37 108 30 127 -10 24 -46 35 -88
25 -20 -4 -36 -7 -36 -6 0 0 11 33 25 71 29 83 33 175 9 199 -22 22 -99 20
-154 -5z m4 -416 c-44 -77 -104 -163 -113 -163 -24 0 -71 14 -71 20 0 23 179
189 203 190 5 0 -4 -21 -19 -47z m-158 -193 c12 0 12 -4 -1 -24 -32 -49 -79
-41 -56 10 8 17 17 24 27 20 9 -3 22 -6 30 -6z"/>
</g>
</svg>
